<svg width="33" height="26" viewBox="0 0 33 26" fill="none" xmlns="http://www.w3.org/2000/svg">
<path fill-rule="evenodd" clip-rule="evenodd" d="M23.8829 22.7235C22.7163 22.7235 21.7663 21.7735 21.7663 20.6052C21.7663 19.4402 22.7163 18.4902 23.8829 18.4902C25.0329 18.4902 25.9663 19.3902 25.9996 20.5235V20.5902C25.9996 20.6052 25.9996 20.6402 26.0163 20.6568C25.9829 21.8068 25.0496 22.7235 23.8829 22.7235ZM14.3829 8.93844C14.1989 8.93844 14.0496 8.7892 14.0496 8.6051V3.60677C14.0496 3.42269 14.1989 3.27344 14.3829 3.27344H18.8663C18.9996 3.27344 19.1496 3.30677 19.2663 3.37344C19.3996 3.45677 19.4996 3.55677 19.5663 3.6901L22.1341 8.44675C22.2541 8.66884 22.0933 8.93844 21.8409 8.93844H14.3829ZM15.6663 15.7402H13.8163C13.1329 15.7402 12.5663 15.1735 12.5663 14.4902C12.5663 13.7902 13.1329 13.2402 13.8163 13.2402H15.6663C16.3663 13.2402 16.9163 13.7902 16.9163 14.4902C16.9163 15.1735 16.3663 15.7402 15.6663 15.7402ZM11.5496 8.6051C11.5496 8.7892 11.4004 8.93844 11.2163 8.93844H3.43294C3.24884 8.93844 3.09961 8.7892 3.09961 8.6051V5.77344C3.09961 5.10677 3.36628 4.47344 3.84961 4.00677C4.31628 3.52177 4.94961 3.27344 5.61628 3.27344H11.2163C11.4004 3.27344 11.5496 3.42269 11.5496 3.60677V8.6051ZM9.01628 22.7235C7.83294 22.7235 6.88294 21.7735 6.88294 20.6052C6.88294 19.4402 7.83294 18.4902 9.01628 18.4902C10.1829 18.4902 11.1329 19.4402 11.1329 20.6052C11.1329 21.7735 10.1829 22.7235 9.01628 22.7235ZM31.3663 10.4068C30.4163 9.47344 29.1663 8.95677 27.8329 8.93844H25.2329L21.7663 2.50677C21.4829 1.97344 21.0663 1.5401 20.5496 1.2401C20.0496 0.923437 19.4663 0.773438 18.8663 0.773438H5.61628C4.28294 0.773438 3.03294 1.2901 2.08294 2.22344C1.13294 3.17344 0.616276 4.42344 0.599609 5.77344V16.8552C0.616276 18.1902 1.13294 19.4402 2.08294 20.3902C2.76628 21.0568 3.59961 21.5235 4.51628 21.7068C5.01628 23.7235 6.84961 25.2235 9.01628 25.2235C11.1163 25.2235 12.9163 23.8068 13.4663 21.8552H19.4329C19.9829 23.8068 21.7829 25.2235 23.8829 25.2235C26.0163 25.2235 27.8163 23.7902 28.3496 21.8235C29.4829 21.7068 30.5496 21.2068 31.3663 20.3735C32.3163 19.4235 32.8329 18.1735 32.8329 16.8402V13.9385C32.8329 12.6068 32.2996 11.3568 31.3663 10.4068Z" fill="white"/>
</svg>
